<svg xmlns="http://www.w3.org/2000/svg" viewBox="0 0 1080 1080"><defs><style>.cls-1{fill:none;stroke:#fff;stroke-miterlimit:10;stroke-width:1.2px;}</style></defs><title>ajedrez</title><g id="Capa_1" data-name="Capa 1"><rect x="-59.5" y="-1159.5" width="4439" height="3382"/><path d="M4379-1159V2222H-59V-1159H4379m1-1H-60V2223H4380V-1160Z"/></g><g id="Capa_3" data-name="Capa 3"><rect class="cls-1" x="278.5" y="278.5" width="524" height="524"/><polyline class="cls-1" points="278.54 802.5 278.54 801.98 278.54 754.39 278.54 706.81 278.54 659.22 278.54 611.63 278.54 564.04 278.54 516.46 278.54 468.87 278.54 421.28 278.54 373.69 278.54 326.11 278.54 278.52 278.54 278.5"/><polyline class="cls-1" points="326.13 278.5 326.13 278.52 326.13 326.11 326.13 373.69 326.13 421.28 326.13 468.87 326.13 516.46 326.13 564.04 326.13 611.63 326.13 659.22 326.13 706.81 326.13 754.39 326.13 801.98 326.13 802.5"/><polyline class="cls-1" points="373.71 278.5 373.71 278.52 373.71 326.11 373.71 373.69 373.71 421.28 373.71 468.87 373.71 516.46 373.71 564.04 373.71 611.63 373.71 659.22 373.71 706.81 373.71 754.39 373.71 801.98 373.71 802.5"/><polyline class="cls-1" points="421.3 278.5 421.3 278.52 421.3 326.11 421.3 373.69 421.3 421.28 421.3 468.87 421.3 516.46 421.3 564.04 421.3 611.63 421.3 659.22 421.3 706.81 421.3 754.39 421.3 801.98 421.3 802.5"/><polyline class="cls-1" points="468.89 278.5 468.89 278.52 468.89 326.11 468.89 373.69 468.89 421.28 468.89 468.87 468.89 516.46 468.89 564.04 468.89 611.63 468.89 659.22 468.89 706.81 468.89 754.39 468.89 801.98 468.89 802.5"/><polyline class="cls-1" points="516.48 278.5 516.48 278.52 516.48 326.11 516.48 373.69 516.48 421.28 516.48 468.87 516.48 516.46 516.48 564.04 516.48 611.63 516.48 659.22 516.48 706.81 516.48 754.39 516.48 801.98 516.48 802.5"/><polyline class="cls-1" points="564.06 278.5 564.06 278.52 564.06 326.11 564.06 373.69 564.06 421.28 564.06 468.87 564.06 516.46 564.06 564.04 564.06 611.63 564.06 659.22 564.06 706.81 564.06 754.39 564.06 801.98 564.06 802.5"/><polyline class="cls-1" points="611.65 278.5 611.65 278.52 611.65 326.11 611.65 373.69 611.65 421.28 611.65 468.87 611.65 516.46 611.65 564.04 611.65 611.63 611.65 659.22 611.65 706.81 611.65 754.39 611.65 801.98 611.65 802.5"/><polyline class="cls-1" points="659.24 278.5 659.24 278.52 659.24 326.11 659.24 373.69 659.24 421.28 659.24 468.87 659.24 516.46 659.24 564.04 659.24 611.63 659.24 659.22 659.24 706.81 659.24 754.39 659.24 801.98 659.24 802.5"/><polyline class="cls-1" points="706.83 278.5 706.83 278.52 706.83 326.11 706.83 373.69 706.83 421.28 706.83 468.87 706.83 516.46 706.83 564.04 706.83 611.63 706.83 659.22 706.83 706.81 706.83 754.39 706.83 801.98 706.83 802.5"/><polyline class="cls-1" points="754.41 278.5 754.41 278.52 754.41 326.11 754.41 373.69 754.41 421.28 754.41 468.87 754.41 516.46 754.41 564.04 754.41 611.63 754.41 659.22 754.41 706.81 754.41 754.39 754.41 801.98 754.41 802.5"/><polyline class="cls-1" points="802 278.5 802 278.52 802 326.11 802 373.69 802 421.28 802 468.87 802 516.46 802 564.04 802 611.63 802 659.22 802 706.81 802 754.39 802 801.98 802 802.5"/><polyline class="cls-1" points="278.5 278.52 278.54 278.52 326.13 278.52 373.71 278.52 421.3 278.52 468.89 278.52 516.48 278.52 564.06 278.52 611.65 278.52 659.24 278.52 706.83 278.52 754.41 278.52 802 278.52 802.5 278.52"/><polyline class="cls-1" points="802.5 326.11 802 326.11 754.41 326.11 706.83 326.11 659.24 326.11 611.65 326.11 564.06 326.11 516.48 326.11 468.89 326.11 421.3 326.11 373.71 326.11 326.13 326.11 278.54 326.11 278.5 326.11"/><polyline class="cls-1" points="802.5 373.69 802 373.69 754.41 373.69 706.83 373.69 659.24 373.69 611.65 373.69 564.06 373.69 516.48 373.69 468.89 373.69 421.3 373.69 373.71 373.69 326.13 373.69 278.54 373.69 278.5 373.69"/><polyline class="cls-1" points="802.5 421.28 802 421.28 754.41 421.28 706.83 421.28 659.24 421.28 611.65 421.28 564.06 421.28 516.48 421.28 468.89 421.28 421.3 421.28 373.71 421.28 326.13 421.28 278.54 421.28 278.5 421.28"/><polyline class="cls-1" points="802.5 468.87 802 468.87 754.41 468.87 706.83 468.87 659.24 468.87 611.65 468.87 564.06 468.87 516.48 468.87 468.89 468.87 421.3 468.87 373.71 468.87 326.13 468.87 278.54 468.87 278.5 468.87"/><polyline class="cls-1" points="802.5 516.46 802 516.46 754.41 516.46 706.83 516.46 659.24 516.46 611.65 516.46 564.06 516.46 516.48 516.46 468.89 516.46 421.3 516.46 373.71 516.46 326.13 516.46 278.54 516.46 278.5 516.46"/><polyline class="cls-1" points="802.5 564.04 802 564.04 754.41 564.04 706.83 564.04 659.24 564.04 611.65 564.04 564.06 564.04 516.48 564.04 468.89 564.04 421.3 564.04 373.71 564.04 326.13 564.04 278.54 564.04 278.5 564.04"/><polyline class="cls-1" points="802.5 611.63 802 611.63 754.41 611.63 706.83 611.63 659.24 611.63 611.65 611.63 564.06 611.63 516.48 611.63 468.89 611.63 421.3 611.63 373.71 611.63 326.13 611.63 278.54 611.63 278.5 611.63"/><polyline class="cls-1" points="802.5 659.22 802 659.22 754.41 659.22 706.83 659.22 659.24 659.22 611.65 659.22 564.06 659.22 516.48 659.22 468.89 659.22 421.3 659.22 373.71 659.22 326.13 659.22 278.54 659.22 278.5 659.22"/><polyline class="cls-1" points="802.5 706.81 802 706.81 754.41 706.81 706.83 706.81 659.24 706.81 611.65 706.81 564.06 706.81 516.48 706.81 468.89 706.81 421.3 706.81 373.71 706.81 326.13 706.81 278.54 706.81 278.5 706.81"/><polyline class="cls-1" points="802.5 754.39 802 754.39 754.41 754.39 706.83 754.39 659.24 754.39 611.65 754.39 564.06 754.39 516.48 754.39 468.89 754.39 421.3 754.39 373.71 754.39 326.13 754.39 278.54 754.39 278.5 754.39"/><polyline class="cls-1" points="802.5 801.98 802 801.98 754.41 801.98 706.83 801.98 659.24 801.98 611.65 801.98 564.06 801.98 516.48 801.98 468.89 801.98 421.3 801.98 373.71 801.98 326.13 801.98 278.54 801.98 278.5 801.98"/></g></svg>