<svg xmlns="http://www.w3.org/2000/svg" viewBox="0 0 1080 1080"><defs><style>.cls-1{fill:none;stroke:#fff;stroke-miterlimit:10;stroke-width:1.2px;}</style></defs><title>diagonal</title><g id="Capa_1" data-name="Capa 1"><rect x="-1159.5" y="-1159.5" width="4439" height="3382"/><path d="M3279-1159V2222H-1159V-1159H3279m1-1H-1160V2223H3280V-1160Z"/></g><g id="Capa_3" data-name="Capa 3"><line class="cls-1" x1="340.5" y1="801.5" x2="278.5" y2="740.79"/><line class="cls-1" x1="418.24" y1="801.5" x2="278.5" y2="664.67"/><line class="cls-1" x1="495.99" y1="801.5" x2="278.5" y2="588.54"/><line class="cls-1" x1="573.73" y1="801.5" x2="278.5" y2="512.42"/><line class="cls-1" x1="651.48" y1="801.5" x2="278.5" y2="436.29"/><line class="cls-1" x1="729.22" y1="801.5" x2="278.5" y2="360.17"/><line class="cls-1" x1="801.5" y1="796.15" x2="278.5" y2="284.04"/><line class="cls-1" x1="801.5" y1="720.02" x2="350.59" y2="278.5"/><line class="cls-1" x1="801.5" y1="643.9" x2="428.33" y2="278.5"/><line class="cls-1" x1="801.5" y1="567.77" x2="506.08" y2="278.5"/><line class="cls-1" x1="801.5" y1="491.65" x2="583.82" y2="278.5"/><line class="cls-1" x1="801.5" y1="415.52" x2="661.56" y2="278.5"/><line class="cls-1" x1="801.5" y1="339.4" x2="739.31" y2="278.5"/><rect class="cls-1" x="278.5" y="278.5" width="523" height="523"/></g></svg>