<svg id="Capa_1" data-name="Capa 1" xmlns="http://www.w3.org/2000/svg" xmlns:xlink="http://www.w3.org/1999/xlink" viewBox="0 0 728 78"><defs><style>.cls-1{fill:url(#Degradado_sin_nombre_14);}</style><radialGradient id="Degradado_sin_nombre_14" cx="363.14" cy="41.25" r="247.96" gradientUnits="userSpaceOnUse"><stop offset="0" stop-color="#daa9da"/><stop offset="1" stop-color="#c1c1c1"/></radialGradient></defs><title>linetext</title><path class="cls-1" d="M709.71,40.46c-108-16.12-211.68-25.15-308-26.83q-19.25-.35-38.09-.28c-62-4.7-121-6-175.94-3.85C74,14,16.65,32,16.09,32.14a3,3,0,1,0,1.82,5.72c.56-.18,57.17-17.93,170-22.36,27.79-1.09,60.59-1.41,98.3-.23-34.86,1.67-68.45,4.41-100.51,8.24C72.78,37,17,59.49,16.46,59.72A3,3,0,0,0,17.6,65.5a3.09,3.09,0,0,0,1.14-.23c.54-.22,55.8-22.48,168-35.85,45.29-5.4,104.18-9.78,176.51-10,93.1,7.09,208.08,23,344.06,54.47A2.68,2.68,0,0,0,708,74a3,3,0,0,0,.68-5.92C615.92,46.58,526.06,30.72,441,20.82c77.26,2.86,166.58,10.47,267.84,25.58a3,3,0,0,0,.88-5.94Z"/></svg>