<svg id="Capa_2" data-name="Capa 2" xmlns="http://www.w3.org/2000/svg" viewBox="0 0 1080 1080"><defs><style>.cls-1{fill:#fff;}</style></defs><title>profile</title><path class="cls-1" d="M531,332a79,79,0,1,1-79,79,79.09,79.09,0,0,1,79-79m0-50A129,129,0,1,0,660,411,129,129,0,0,0,531,282Z"/><path class="cls-1" d="M531,640a191.89,191.89,0,0,1,88.08,21.09,195.79,195.79,0,0,1,67.12,56.5,21.84,21.84,0,0,1-17.5,34.91H393.3a21.84,21.84,0,0,1-17.5-34.91,195.79,195.79,0,0,1,67.12-56.5A191.89,191.89,0,0,1,531,640m0-50a243.6,243.6,0,0,0-195.17,97.55c-35.57,47.32-1.73,115,57.47,115H668.7c59.2,0,93-67.63,57.47-115A243.6,243.6,0,0,0,531,590Z"/></svg>