<svg id="Capa_2" data-name="Capa 2" xmlns="http://www.w3.org/2000/svg" viewBox="0 0 1080 1080"><defs><style>.cls-1{fill:#fff;}</style></defs><title>profile</title><path class="cls-1" d="M531,300.07a110.93,110.93,0,1,1-78.44,32.49A110.21,110.21,0,0,1,531,300.07M531,282A129,129,0,1,0,660,411,129,129,0,0,0,531,282Z"/><path class="cls-1" d="M531,608.07a223.49,223.49,0,0,1,102.6,24.58,228.14,228.14,0,0,1,78.13,65.75,53.77,53.77,0,0,1-43,86H393.3a53.77,53.77,0,0,1-43-86,228.14,228.14,0,0,1,78.13-65.75A223.49,223.49,0,0,1,531,608.07M531,590a243.6,243.6,0,0,0-195.17,97.55c-35.57,47.32-1.73,115,57.47,115H668.7c59.2,0,93-67.63,57.47-115A243.6,243.6,0,0,0,531,590Z"/></svg>