<svg id="Capa_2" data-name="Capa 2" xmlns="http://www.w3.org/2000/svg" viewBox="0 0 1080 1080"><defs><style>.cls-1{fill:#fff;}.cls-2{fill:none;stroke:#fff;stroke-linecap:round;stroke-miterlimit:10;stroke-width:50px;}</style></defs><title>shop</title><circle class="cls-1" cx="432.9" cy="744.64" r="35.1"/><path class="cls-1" d="M674.46,394.59l1.41,0a48.83,48.83,0,0,1,38.82,20.58,51.52,51.52,0,0,1,7.85,45.27l-5.91,20c-7.73,26.14-14.23,52.94-19.34,79.66a53.8,53.8,0,0,1-52.83,43.57H404.26L379,394.59H674.46m0-50h-331a18.68,18.68,0,0,0-18.68,18.68l30,248.08a42.34,42.34,0,0,0,42.34,42.34h247.3A103.82,103.82,0,0,0,746.4,569.51q7.23-37.86,18.18-74.88l5.91-20c18.74-63.41-27.25-128.33-93.35-130-.89,0-1.78,0-2.68,0Z"/><path class="cls-2" d="M336.68,369s-2-61.3-34.93-86.34"/><circle class="cls-1" cx="669.9" cy="744.64" r="35.1"/></svg>