<svg id="Capa_2" data-name="Capa 2" xmlns="http://www.w3.org/2000/svg" viewBox="0 0 1080 1080"><defs><style>.cls-1{fill:#fff;}.cls-2{fill:none;stroke:#fff;stroke-linecap:round;stroke-miterlimit:10;stroke-width:23.82px;}</style></defs><title>shop</title><circle class="cls-1" cx="432.9" cy="744.64" r="35.1"/><path class="cls-1" d="M674.46,368.41c.69,0,1.39,0,2.08,0a75.28,75.28,0,0,1,59.32,31.35,77.55,77.55,0,0,1,11.79,68.09l-5.91,20C734.25,513.2,728,539.16,723,565a80,80,0,0,1-78.54,64.83H397.16a18.54,18.54,0,0,1-18.52-18.52v-1.44l-.17-1.42-29-240.08h325m0-23.82h-331a18.68,18.68,0,0,0-18.68,18.68l30,248.08a42.34,42.34,0,0,0,42.34,42.34h247.3A103.82,103.82,0,0,0,746.4,569.51q7.23-37.86,18.18-74.88l5.91-20c18.74-63.41-27.25-128.33-93.35-130-.89,0-1.78,0-2.68,0Z"/><path class="cls-2" d="M336.68,369s-2-61.3-34.93-86.34"/><circle class="cls-1" cx="669.9" cy="744.64" r="35.1"/></svg>